<?xml version="1.0" standalone="no"?>
<!DOCTYPE svg PUBLIC "-//W3C//DTD SVG 20010904//EN"
 "http://www.w3.org/TR/2001/REC-SVG-20010904/DTD/svg10.dtd">
<svg version="1.0" xmlns="http://www.w3.org/2000/svg"
 width="512.000000pt" height="512.000000pt" viewBox="0 0 512.000000 512.000000"
 preserveAspectRatio="xMidYMid meet">

<g transform="translate(0.000000,512.000000) scale(0.100000,-0.100000)"
fill="#000000" stroke="none">
<path d="M2295 5079 c-49 -5 -156 -23 -237 -39 -992 -199 -1779 -988 -1978
-1980 -164 -822 79 -1651 660 -2254 404 -418 896 -668 1495 -758 137 -20 540
-17 685 6 543 84 1007 313 1394 686 418 404 668 896 758 1495 18 120 18 530 0
650 -87 574 -312 1036 -702 1439 -387 399 -882 654 -1440 741 -126 20 -504 28
-635 14z m483 -400 c642 -69 1209 -415 1565 -954 89 -135 182 -328 236 -493
149 -445 149 -900 0 -1346 -212 -637 -713 -1137 -1349 -1347 -725 -239 -1499
-80 -2081 427 -450 392 -719 986 -719 1592 0 709 356 1377 945 1771 275 184
627 313 955 350 110 12 336 13 448 0z"/>
<path d="M2460 3828 c-69 -37 -104 -94 -108 -176 -3 -56 0 -74 20 -112 37 -69
94 -104 176 -108 56 -3 74 0 112 20 69 37 104 94 108 176 3 56 0 74 -20 112
-37 69 -94 104 -176 108 -56 3 -74 0 -112 -20z"/>
<path d="M2501 3165 c-53 -17 -97 -56 -122 -110 -18 -38 -19 -83 -19 -835 l0
-796 23 -44 c12 -24 39 -58 60 -74 36 -29 45 -31 117 -31 72 0 81 2 117 31 21
16 48 50 61 74 l22 44 0 793 c0 875 3 833 -63 901 -19 19 -52 39 -81 47 -58
18 -58 18 -115 0z"/>
</g>
</svg>
