<?xml version="1.0" standalone="no"?>
<!DOCTYPE svg PUBLIC "-//W3C//DTD SVG 20010904//EN"
 "http://www.w3.org/TR/2001/REC-SVG-20010904/DTD/svg10.dtd">
<svg version="1.0" xmlns="http://www.w3.org/2000/svg"
 width="512.000000pt" height="512.000000pt" viewBox="0 0 512.000000 512.000000"
 preserveAspectRatio="xMidYMid meet">

<g transform="translate(0.000000,512.000000) scale(0.100000,-0.100000)"
fill="#000000" stroke="none">
<path d="M645 4470 c-107 -22 -225 -89 -296 -168 -62 -70 -117 -191 -130 -287
-6 -52 -9 -319 -7 -760 3 -625 5 -684 22 -735 60 -182 195 -316 366 -363 30
-9 76 -18 103 -22 l47 -6 0 -136 c0 -146 8 -178 58 -229 66 -66 163 -81 248
-39 44 22 66 46 189 215 l139 190 268 0 268 0 0 -372 c0 -417 4 -451 65 -567
59 -113 168 -207 290 -254 60 -22 64 -22 710 -25 l650 -3 210 -208 c171 -170
217 -211 250 -220 77 -21 139 -9 198 40 64 52 71 76 77 239 l5 145 60 7 c209
26 385 171 448 373 22 70 22 74 22 795 0 721 0 725 -22 795 -55 176 -200 313
-378 359 -50 14 -151 16 -682 16 l-623 0 0 368 c0 219 -4 392 -11 428 -36 198
-202 372 -401 419 -54 12 -216 15 -1083 14 -561 -1 -1038 -5 -1060 -9z m2098
-215 c103 -27 167 -82 216 -185 l26 -55 0 -380 0 -380 -325 -5 c-355 -6 -369
-8 -472 -71 -45 -27 -48 -28 -57 -10 -6 10 -83 177 -171 372 -88 194 -168 361
-176 371 -51 55 -138 39 -174 -32 -12 -23 -138 -298 -281 -612 -178 -394 -259
-582 -259 -605 0 -27 9 -44 35 -70 32 -32 40 -35 77 -30 22 3 50 15 62 26 12
12 59 106 106 209 l86 187 273 3 273 2 -5 -22 c-3 -13 -15 -50 -28 -83 -22
-56 -24 -78 -27 -297 l-4 -238 -296 0 c-263 0 -301 -2 -331 -18 -25 -12 -76
-73 -180 -215 l-146 -198 -5 178 c-5 186 -11 212 -53 235 -12 7 -74 15 -137
18 -137 8 -191 30 -262 108 -81 91 -78 61 -78 853 0 661 1 701 19 749 37 98
116 168 220 196 35 10 284 13 1031 13 842 1 994 -1 1043 -14z m-949 -866 l84
-184 -165 -3 c-91 -1 -168 0 -171 2 -2 3 33 88 79 190 46 101 85 183 87 182 1
-2 40 -86 86 -187z m2718 -382 c62 -30 115 -83 150 -149 l23 -43 0 -735 0
-735 -23 -43 c-35 -66 -88 -119 -149 -149 -48 -23 -73 -28 -174 -33 -113 -5
-121 -7 -147 -33 l-27 -27 -3 -187 -3 -186 -213 211 c-116 117 -214 213 -217
214 -2 1 -308 5 -679 8 l-675 5 -50 23 c-93 43 -163 131 -184 230 -15 74 -15
1331 0 1404 6 29 18 66 26 82 21 41 92 115 127 133 81 42 67 42 1136 40 l1025
-2 57 -28z"/>
<path d="M3343 2746 c-28 -24 -28 -27 -33 -158 l-5 -133 -236 -5 c-213 -5
-239 -7 -258 -24 -33 -30 -45 -78 -27 -119 27 -67 28 -67 482 -67 l406 0 -7
-37 c-26 -144 -131 -327 -232 -407 l-26 -20 -60 64 c-33 36 -80 100 -105 143
-62 106 -110 130 -179 87 -49 -30 -59 -80 -28 -147 29 -65 74 -131 137 -205
l49 -57 -33 -14 c-50 -21 -124 -36 -221 -46 -94 -9 -116 -21 -137 -71 -16 -38
1 -92 38 -121 25 -20 36 -21 132 -16 120 6 243 38 347 91 l67 33 82 -39 c111
-52 217 -78 341 -85 l102 -6 30 31 c45 45 44 101 -3 148 -30 30 -40 34 -85 34
-59 0 -190 25 -240 46 l-33 14 44 52 c121 143 204 318 226 475 l7 48 50 5 c82
9 115 43 115 116 0 26 -8 44 -29 65 l-29 29 -236 0 -236 0 0 121 c0 95 -4 127
-17 149 -32 55 -112 67 -160 26z"/>
</g>
</svg>
