<?xml version="1.0" standalone="no"?>
<!DOCTYPE svg PUBLIC "-//W3C//DTD SVG 20010904//EN"
 "http://www.w3.org/TR/2001/REC-SVG-20010904/DTD/svg10.dtd">
<svg version="1.0" xmlns="http://www.w3.org/2000/svg"
 width="512.000000pt" height="512.000000pt" viewBox="0 0 512.000000 512.000000"
 preserveAspectRatio="xMidYMid meet">

<g transform="translate(0.000000,512.000000) scale(0.100000,-0.100000)"
fill="#000000" stroke="none">
<path d="M2066 5104 c-197 -48 -365 -220 -406 -414 -8 -39 -10 -235 -8 -671
l3 -616 29 -37 c81 -107 247 -93 305 26 21 44 21 54 21 629 0 657 -2 636 76
695 l37 29 1250 3 1249 2 40 -22 c22 -13 51 -41 64 -64 l24 -41 0 -2063 0
-2063 -24 -41 c-13 -23 -42 -51 -64 -64 l-40 -22 -1249 2 -1250 3 -37 29 c-78
59 -76 38 -76 695 0 575 0 585 -21 629 -58 119 -224 133 -305 26 l-29 -37 -3
-616 c-2 -436 0 -632 8 -671 31 -147 141 -292 276 -362 137 -72 60 -69 1477
-66 l1272 3 67 26 c37 14 89 41 117 58 115 74 216 224 240 355 15 84 15 4148
0 4232 -24 131 -125 281 -240 355 -28 17 -80 44 -117 58 l-67 26 -1280 2
c-1080 1 -1289 -1 -1339 -13z"/>
<path d="M1015 3635 c-51 -27 -975 -955 -996 -1000 -23 -49 -24 -94 -4 -143
22 -51 954 -986 1010 -1013 49 -23 94 -24 142 -4 48 20 71 41 94 87 23 45 24
106 4 156 -11 25 -120 142 -328 350 l-312 312 1540 0 1540 0 40 23 c125 71
125 243 0 314 l-40 23 -1540 0 -1540 0 307 308 c334 334 357 364 344 444 -16
96 -74 150 -170 156 -42 2 -70 -2 -91 -13z"/>
</g>
</svg>
