<?xml version="1.0" standalone="no"?>
<!DOCTYPE svg PUBLIC "-//W3C//DTD SVG 20010904//EN"
 "http://www.w3.org/TR/2001/REC-SVG-20010904/DTD/svg10.dtd">
<svg version="1.0" xmlns="http://www.w3.org/2000/svg"
 width="512.000000pt" height="512.000000pt" viewBox="0 0 512.000000 512.000000"
 preserveAspectRatio="xMidYMid meet">

<g transform="translate(0.000000,512.000000) scale(0.100000,-0.100000)"
fill="#000000" stroke="none">
<path d="M2412 4940 c-108 -29 -187 -75 -273 -161 -122 -120 -178 -262 -179
-446 l0 -83 -99 0 c-107 0 -140 -13 -185 -73 -21 -28 -21 -36 -21 -607 0 -569
0 -579 21 -606 11 -15 33 -37 48 -48 27 -21 35 -21 836 -21 801 0 809 0 836
21 15 11 37 33 48 48 21 27 21 37 21 606 0 571 0 579 -21 607 -45 60 -78 73
-185 73 l-99 0 0 83 c-1 183 -57 325 -180 447 -86 87 -162 131 -276 160 -96
25 -197 25 -292 0z m274 -333 c99 -50 145 -130 152 -264 l5 -93 -283 0 -283 0
5 93 c7 135 52 212 152 264 79 41 171 41 252 0z m464 -1037 l0 -360 -590 0
-590 0 0 360 0 360 590 0 590 0 0 -360z"/>
<path d="M540 2568 c-33 -17 -51 -35 -67 -68 l-23 -44 0 -1081 c0 -1032 1
-1082 19 -1121 10 -23 34 -52 52 -65 l34 -24 2005 0 2005 0 34 24 c18 13 42
42 52 65 18 39 19 89 19 1122 l0 1081 -23 43 c-16 30 -37 51 -67 67 l-43 23
-1976 0 -1977 0 -44 -22z m3810 -1193 l0 -895 -1790 0 -1790 0 0 895 0 895
1790 0 1790 0 0 -895z"/>
<path d="M1309 1787 c-346 -121 -406 -570 -103 -777 74 -51 156 -73 264 -68
82 3 104 8 163 37 89 42 166 119 208 208 29 59 34 81 37 165 6 147 -30 240
-133 337 -82 78 -165 113 -279 118 -76 3 -102 0 -157 -20z m217 -331 c29 -29
34 -41 34 -81 0 -40 -5 -52 -34 -81 -29 -29 -41 -34 -80 -34 -115 0 -159 152
-62 211 50 31 102 25 142 -15z"/>
<path d="M2420 1787 c-154 -52 -261 -179 -292 -347 -34 -180 74 -380 249 -463
64 -30 74 -32 184 -32 113 0 116 1 191 38 215 106 304 355 204 572 -35 76 -72
122 -139 172 -112 82 -265 105 -397 60z m201 -314 c66 -39 74 -131 17 -185
-24 -23 -39 -28 -78 -28 -39 0 -54 5 -78 28 -102 96 19 256 139 185z"/>
<path d="M3567 1799 c-96 -22 -220 -116 -270 -203 -46 -79 -60 -140 -55 -244
3 -84 8 -106 37 -165 42 -89 119 -166 208 -208 58 -28 82 -34 159 -37 108 -5
181 13 258 62 195 125 261 370 156 577 -29 57 -113 142 -170 173 -95 52 -220
69 -323 45z m163 -324 c104 -54 62 -215 -56 -215 -39 0 -51 5 -80 34 -29 29
-34 41 -34 81 0 40 5 52 34 81 39 39 86 45 136 19z"/>
</g>
</svg>
