<?xml version="1.0" standalone="no"?>
<!DOCTYPE svg PUBLIC "-//W3C//DTD SVG 20010904//EN"
 "http://www.w3.org/TR/2001/REC-SVG-20010904/DTD/svg10.dtd">
<svg version="1.0" xmlns="http://www.w3.org/2000/svg"
 width="512.000000pt" height="512.000000pt" viewBox="0 0 512.000000 512.000000"
 preserveAspectRatio="xMidYMid meet">

<g transform="translate(0.000000,512.000000) scale(0.100000,-0.100000)"
fill="#000000" stroke="none">
<path d="M2090 4626 c-284 -61 -508 -252 -601 -514 -125 -355 4 -736 319 -943
134 -88 258 -124 432 -124 226 0 408 75 564 231 156 156 231 338 231 564 0
174 -36 298 -124 432 -114 174 -272 288 -481 345 -78 21 -260 26 -340 9z m265
-321 c237 -62 393 -291 358 -529 -28 -194 -168 -351 -358 -401 -251 -65 -513
94 -580 350 -89 343 237 669 580 580z"/>
<path d="M2100 2873 c-283 -30 -551 -161 -761 -372 -151 -151 -239 -290 -307
-481 -62 -177 -67 -220 -67 -607 0 -339 1 -352 21 -379 11 -15 33 -37 48 -48
27 -21 37 -21 646 -21 609 0 619 0 646 21 53 39 69 71 69 134 0 63 -16 95 -69
134 -27 20 -40 21 -538 24 l-510 3 4 237 c5 259 15 315 77 461 69 163 221 340
371 433 168 104 306 142 515 142 181 -1 259 -19 410 -93 279 -138 461 -370
526 -674 30 -138 70 -182 168 -182 73 0 121 33 146 100 17 42 17 50 1 134 -70
381 -337 732 -695 911 -196 98 -476 147 -701 123z"/>
<path d="M4095 2066 c-16 -7 -39 -24 -51 -37 -11 -13 -175 -271 -364 -574
-188 -302 -344 -552 -347 -554 -2 -3 -88 79 -191 181 -201 201 -215 209 -299
193 -49 -9 -109 -69 -118 -118 -17 -88 -16 -90 283 -389 239 -239 282 -278
315 -283 56 -11 105 3 142 38 18 18 217 327 441 687 l409 655 0 57 c0 61 -17
94 -67 131 -34 25 -113 32 -153 13z"/>
</g>
</svg>
